<svg version="1.1" id="star" xmlns="http://www.w3.org/2000/svg" xmlns:xlink="http://www.w3.org/1999/xlink" x="0px" y="0px"
	 width="67.083px" height="67.079px" viewBox="0 0 67.083 67.079" fill="#cbcbcb">
<path d="M33.54,0C15.017,0,0,15.019,0,33.541c0,18.524,15.017,33.538,33.54,33.538c18.525,0,33.543-15.014,33.543-33.538
	C67.083,15.019,52.065,0,33.54,0 M54.613,29.334l-10.533,7.65l4.036,12.37c0,0,0.981,2.211-0.632,3.388
	c-1.641,1.176-3.404-0.465-3.404-0.465l-10.54-7.641l-10.527,7.666c0,0-1.786,1.615-3.427,0.439
	c-1.609-1.177-0.624-3.375-0.624-3.375l4.029-12.383l-10.534-7.63c0,0-2.076-1.214-1.485-3.118c0.618-1.888,3.045-1.651,3.045-1.651
	h13.007l3.985-12.373c0,0,0.527-2.356,2.531-2.356c1.996,0,2.47,2.356,2.47,2.356l4.043,12.373h13.002c0,0,2.406-0.237,3.014,1.651
	C56.697,28.14,54.613,29.334,54.613,29.334"/>
</svg>
